<?xml version="1.0" standalone="no"?>
<!DOCTYPE svg PUBLIC "-//W3C//DTD SVG 20010904//EN"
 "http://www.w3.org/TR/2001/REC-SVG-20010904/DTD/svg10.dtd">
<svg version="1.0" xmlns="http://www.w3.org/2000/svg"
 width="600.000000pt" height="980.000000pt" viewBox="0 0 600.000000 980.000000"
 preserveAspectRatio="xMidYMid meet">
<metadata>
Created by potrace 1.16, written by Peter Selinger 2001-2019
</metadata>
<g transform="translate(0.000000,980.000000) scale(0.100000,-0.100000)" stroke="none">
<path d="M3410 9309 c-124 -24 -263 -139 -328 -271 -56 -114 -75 -213 -69
-353 8 -203 68 -346 197 -476 161 -163 349 -198 533 -102 244 128 351 483 243
803 -35 102 -81 175 -161 255 -126 126 -263 174 -415 144z"/>
<path d="M4837 9204 c-189 -45 -364 -193 -471 -396 -273 -518 -26 -1165 469
-1228 317 -41 632 198 748 566 75 237 57 484 -49 703 -39 80 -60 108 -138 186
-99 99 -173 143 -289 170 -77 18 -193 18 -270 -1z"/>
<path d="M2256 8993 c-214 -65 -350 -318 -316 -589 29 -230 147 -412 326 -500
75 -37 82 -39 178 -39 91 0 107 3 161 29 214 105 321 392 250 672 -23 88 -87
212 -144 275 -126 141 -301 200 -455 152z"/>
<path d="M1249 8437 c-120 -45 -201 -142 -244 -291 -24 -81 -17 -276 13 -357
71 -197 187 -331 340 -390 85 -33 198 -32 274 3 165 76 261 289 230 508 -14
98 -49 202 -94 278 -50 85 -152 183 -233 223 -59 29 -79 34 -159 36 -59 2
-104 -1 -127 -10z"/>
<path d="M557 7759 c-87 -20 -180 -98 -226 -187 -82 -160 -59 -388 56 -556
166 -243 464 -276 614 -68 192 268 30 725 -286 807 -65 17 -101 18 -158 4z"/>
<path d="M3345 7753 c-742 -40 -1411 -272 -1880 -650 -689 -556 -940 -1400
-745 -2503 64 -358 184 -754 370 -1220 337 -843 685 -1552 985 -2005 309 -467
612 -751 957 -895 288 -120 717 -169 986 -111 527 112 899 505 1024 1081 19
91 22 134 22 325 0 191 -3 234 -22 325 -50 228 -126 408 -271 633 -322 503
-456 907 -412 1240 31 229 109 398 356 766 256 381 334 524 403 741 115 361
106 797 -24 1248 -75 258 -255 503 -499 677 -112 81 -336 192 -478 239 -245
80 -539 122 -772 109z"/>
</g>
</svg>
